<?xml version="1.0" standalone="no"?>
<!DOCTYPE svg PUBLIC "-//W3C//DTD SVG 20010904//EN"
 "http://www.w3.org/TR/2001/REC-SVG-20010904/DTD/svg10.dtd">
<svg version="1.0" xmlns="http://www.w3.org/2000/svg"
viewBox="50 50 340 340"
  mlns="http://www.w3.org/2000/svg" height="48px" width="48px">
<metadata>
Created by potrace 1.16, written by Peter Selinger 2001-2019
</metadata>
<g transform="translate(0.000000,470.000000) scale(0.100000,-0.100000)"
fill="#000000" stroke="none">
<path d="M2257 4148 c-12 -158 -37 -463 -43 -515 l-5 -53 -39 0 c-58 0 -194
-28 -273 -57 -137 -49 -315 -152 -377 -218 -22 -23 -50 -34 -50 -18 0 4 10 18
23 32 l22 26 -26 -22 c-14 -13 -28 -23 -32 -23 -3 0 -56 43 -116 95 -61 52
-113 95 -117 95 -4 0 111 -138 199 -237 l19 -22 -51 -58 c-133 -154 -236 -395
-257 -605 l-7 -66 -76 -6 c-461 -38 -565 -47 -569 -51 -3 -3 2 -5 11 -5 14 0
274 -22 405 -34 24 -2 40 -1 37 3 -4 3 -63 11 -133 17 -105 9 -4 11 571 10
l697 -1 0 31 c0 16 13 51 29 76 67 106 224 119 304 25 10 -12 15 -16 11 -8 -7
15 20 14 271 -8 407 -36 851 -67 783 -55 -22 4 -28 11 -31 42 l-4 37 -1 -37
c-3 -58 -20 -45 -27 20 -29 241 -117 448 -263 620 -28 34 -41 57 -35 63 10 10
84 -75 138 -158 15 -24 30 -43 32 -43 9 0 -35 65 -95 141 l-63 80 94 107 c100
115 127 152 81 111 -60 -52 -180 -155 -197 -168 -15 -12 -23 -9 -65 25 -53 44
-89 70 -62 44 9 -8 36 -31 59 -51 26 -22 41 -41 37 -48 -5 -7 -27 6 -65 39
-155 135 -392 237 -600 258 -76 7 -106 27 -54 35 28 4 28 4 2 6 -30 1 -24 -38
-55 374 -10 130 -21 237 -25 237 -3 0 -9 -37 -12 -82z m5 -805 l-3 -703 -27 0
c-15 -1 -38 -7 -52 -15 -33 -19 -39 -18 -34 3 2 9 26 310 54 667 49 629 60
760 63 753 1 -1 1 -319 -1 -705z m-56 175 c-3 -29 -6 -60 -6 -69 0 -12 -19
-19 -85 -28 -47 -7 -88 -14 -91 -15 -9 -1 -43 123 -35 128 7 4 164 30 210 35
11 1 12 -10 7 -51z m267 31 l79 -12 -6 -31 c-17 -84 -27 -108 -44 -101 -9 3
-48 11 -88 17 -69 11 -72 13 -78 41 -3 16 -6 47 -6 69 0 44 -18 42 143 17z
m-480 -92 c12 -44 13 -59 4 -62 -7 -3 -39 -14 -71 -25 -32 -11 -78 -31 -102
-44 l-43 -24 -35 59 -35 59 32 17 c84 45 219 96 228 85 3 -4 13 -33 22 -65z
m633 53 c84 -29 194 -81 194 -92 0 -6 -14 -34 -32 -63 -31 -52 -32 -53 -56
-37 -13 8 -60 29 -106 46 -45 17 -83 34 -85 39 -3 7 19 127 24 127 1 0 28 -9
61 -20z m-430 -132 c-3 -24 -11 -108 -17 -188 -6 -80 -15 -149 -19 -153 -12
-14 -44 -4 -48 15 -2 9 5 18 15 21 16 4 15 5 -2 6 -18 1 -26 22 -61 154 -23
83 -40 154 -38 156 5 6 122 29 152 30 22 1 23 -2 18 -41z m230 31 c32 -5 66
-12 75 -15 16 -4 13 -17 -70 -322 -10 -36 -16 -43 -34 -40 -25 3 -35 36 -15
49 10 7 10 9 -3 9 -13 0 -17 19 -23 113 -4 61 -10 136 -13 165 -7 59 -10 58
83 41z m-687 -56 c20 -35 28 -59 21 -61 -19 -7 -150 -107 -150 -115 0 -4 29
15 65 43 106 81 89 89 190 -87 50 -85 91 -158 93 -163 2 -4 -11 -18 -28 -30
-26 -18 -33 -20 -46 -9 -14 11 -12 16 18 42 l33 29 -37 -26 -36 -26 -180 153
c-99 83 -179 157 -178 162 3 13 177 145 191 145 6 0 26 -26 44 -57z m1124 45
c23 -12 177 -128 177 -134 0 -1 -90 -80 -200 -174 l-201 -171 -29 21 c-32 23
-34 28 -22 47 6 9 18 6 47 -13 29 -18 33 -20 16 -4 -13 11 -30 24 -38 29 -11
6 4 38 66 145 44 76 81 140 84 142 2 3 42 -23 88 -57 46 -34 75 -52 64 -39
-11 12 -47 41 -80 63 -33 22 -61 41 -63 43 -4 3 59 114 65 114 2 0 14 -5 26
-12z m-809 -172 c20 -76 35 -143 33 -149 -2 -7 2 -18 10 -25 21 -21 16 -25
-45 -50 -31 -13 -62 -25 -68 -28 -10 -5 -194 300 -194 320 0 8 93 51 165 76
35 12 52 14 56 6 3 -6 23 -73 43 -150z m639 99 c31 -15 57 -29 57 -32 0 -16
-163 -282 -171 -278 -5 4 -7 0 -4 -7 3 -7 1 -19 -3 -26 -7 -10 -20 -7 -63 13
-30 13 -60 25 -66 25 -15 0 -16 9 -4 29 5 8 18 11 32 7 23 -5 22 -5 -2 7 l-25
12 42 155 c23 85 43 156 43 157 2 4 110 -37 164 -62z m-1164 -198 c13 -16 12
-21 -16 -50 -16 -17 -44 -53 -62 -79 -18 -27 -35 -48 -39 -48 -4 0 -31 14 -60
30 -48 28 -51 32 -41 53 15 27 51 77 102 139 l38 47 32 -37 c17 -20 38 -45 46
-55z m1624 11 c30 -40 62 -85 71 -99 l17 -26 -61 -36 -60 -36 -15 29 c-8 16
-36 55 -61 85 -49 61 -50 53 10 127 17 20 33 35 37 32 4 -2 31 -36 62 -76z
m-1483 -174 c63 -75 116 -140 118 -145 2 -5 -6 -23 -18 -39 -20 -29 -24 -30
-39 -16 -10 9 -21 16 -25 16 -6 0 -261 145 -274 156 -10 7 101 164 116 164 4
0 59 -61 122 -136z m1367 84 c50 -66 77 -108 72 -112 -11 -9 -272 -156 -277
-156 -15 0 -52 71 -45 84 14 24 198 236 204 236 4 0 25 -24 46 -52z m-883
-178 c-6 -77 -13 -142 -15 -145 -5 -4 -219 172 -219 180 0 16 189 104 225 105
20 0 20 -3 9 -140z m354 100 c35 -16 74 -38 88 -49 l24 -19 -107 -91 c-60 -50
-111 -91 -114 -91 -4 0 -9 48 -13 108 -4 59 -10 125 -13 146 l-6 39 39 -7 c21
-4 67 -20 102 -36z m-1156 -2 c29 -17 54 -32 56 -33 1 -1 -11 -29 -27 -61 -16
-32 -37 -83 -46 -111 -10 -29 -22 -53 -27 -53 -32 0 -118 33 -118 45 0 32 92
245 105 245 3 0 28 -14 57 -32z m1928 -33 c30 -63 70 -169 70 -186 0 -7 -25
-16 -101 -34 -24 -6 -27 -2 -49 57 -12 35 -34 85 -47 112 -20 40 -22 51 -11
57 7 5 31 19 53 33 22 13 43 25 47 25 4 1 21 -28 38 -64z m-1587 -165 c5 -4 2
-21 -7 -38 -9 -17 -16 -35 -16 -39 1 -4 10 9 21 29 13 25 24 35 34 32 8 -4 15
-9 15 -13 0 -9 -46 -121 -53 -127 -8 -8 -357 87 -357 97 0 14 46 132 69 177
l21 41 133 -76 c72 -42 136 -79 140 -83z m1483 34 c21 -52 35 -96 33 -98 -11
-10 -350 -96 -359 -91 -6 3 -10 12 -10 18 0 7 -11 34 -24 60 -23 46 -23 48 -5
58 11 5 19 6 19 2 0 -4 4 -2 9 6 5 7 69 48 142 91 118 69 135 77 146 63 7 -9
29 -58 49 -109z m-378 4 c15 -24 18 -36 10 -45 -15 -19 -21 -16 -45 21 -16 25
-19 36 -10 45 17 17 23 14 45 -21z m-889 -125 l92 -108 -88 -12 c-106 -14
-213 -16 -213 -5 0 41 92 232 111 232 4 0 48 -48 98 -107z m854 61 c26 -44 80
-185 72 -192 -4 -4 -288 18 -293 23 -5 5 178 215 187 215 3 0 19 -21 34 -46z
m-1500 -35 c26 -6 47 -15 47 -20 0 -5 6 -6 13 -3 11 4 108 -21 337 -85 14 -4
24 -10 23 -14 -2 -4 -3 -16 -3 -27 0 -13 -7 -20 -20 -20 -15 0 -20 7 -21 28
l-2 27 -4 -26 c-5 -33 -17 -36 -202 -45 l-134 -7 6 69 c3 42 2 57 -3 39 -4
-16 -8 -49 -9 -72 l-1 -43 -71 0 -72 0 7 68 c11 105 26 153 45 148 9 -3 37
-10 64 -17z m2111 -66 c26 -140 28 -134 -51 -131 l-67 3 -12 75 c-18 111 -20
105 39 122 28 9 57 16 63 17 7 1 19 -35 28 -86z m-145 -16 c15 -89 14 -107 -6
-107 -10 0 -84 5 -165 12 -139 11 -148 13 -149 32 -2 21 -2 21 -6 0 -3 -16 -9
-20 -24 -17 -10 3 -19 9 -19 13 0 5 -3 15 -6 23 -3 10 3 16 23 20 15 3 93 23
173 45 80 22 150 41 156 41 7 1 17 -27 23 -62z"/>
<path d="M2030 3050 c-18 -12 -2 -12 25 0 13 6 15 9 5 9 -8 0 -22 -4 -30 -9z"/>
<path d="M1965 3020 c-3 -6 1 -7 9 -4 18 7 21 14 7 14 -6 0 -13 -4 -16 -10z"/>
<path d="M2510 3040 c8 -5 20 -10 25 -10 6 0 3 5 -5 10 -8 5 -19 10 -25 10 -5
0 -3 -5 5 -10z"/>
<path d="M1743 2828 c-15 -20 -25 -38 -20 -38 3 0 12 11 21 25 17 26 16 35 -1
13z"/>
<path d="M1656 2665 c-3 -9 -6 -22 -5 -28 0 -7 5 -1 10 12 5 13 8 26 5 28 -2
2 -6 -3 -10 -12z"/>
<path d="M2857 2700 c9 -22 18 -38 20 -36 5 5 -24 76 -31 76 -2 0 3 -18 11
-40z"/>
<path d="M1915 3681 c-8 -15 3 -31 21 -31 9 0 14 7 12 17 -4 20 -24 28 -33 14z"/>
<path d="M2570 3670 c0 -15 5 -20 18 -18 9 2 17 10 17 18 0 8 -8 16 -17 18
-13 2 -18 -3 -18 -18z"/>
<path d="M2178 3613 c7 -3 16 -2 19 1 4 3 -2 6 -13 5 -11 0 -14 -3 -6 -6z"/>
<path d="M2055 3600 c-42 -11 -1 -11 50 -1 34 7 35 9 10 9 -16 0 -43 -4 -60
-8z"/>
<path d="M2413 3603 c9 -2 23 -2 30 0 6 3 -1 5 -18 5 -16 0 -22 -2 -12 -5z"/>
<path d="M2478 3593 c6 -2 18 -2 25 0 6 3 1 5 -13 5 -14 0 -19 -2 -12 -5z"/>
<path d="M1998 3583 c7 -3 16 -2 19 1 4 3 -2 6 -13 5 -11 0 -14 -3 -6 -6z"/>
<path d="M2528 3583 c7 -3 16 -2 19 1 4 3 -2 6 -13 5 -11 0 -14 -3 -6 -6z"/>
<path d="M1958 3573 c7 -3 16 -2 19 1 4 3 -2 6 -13 5 -11 0 -14 -3 -6 -6z"/>
<path d="M2575 3570 c11 -5 27 -9 35 -9 9 0 8 4 -5 9 -11 5 -27 9 -35 9 -9 0
-8 -4 5 -9z"/>
<path d="M1610 3540 c0 -15 5 -20 18 -18 9 2 17 10 17 18 0 8 -8 16 -17 18
-13 2 -18 -3 -18 -18z"/>
<path d="M1870 3550 c-18 -12 -2 -12 25 0 13 6 15 9 5 9 -8 0 -22 -4 -30 -9z"/>
<path d="M2874 3549 c-3 -6 -2 -15 4 -21 13 -13 32 -2 32 18 0 16 -26 19 -36
3z"/>
<path d="M2670 3540 c8 -5 20 -10 25 -10 6 0 3 5 -5 10 -8 5 -19 10 -25 10 -5
0 -3 -5 5 -10z"/>
<path d="M1820 3530 c-8 -5 -10 -10 -5 -10 6 0 17 5 25 10 8 5 11 10 5 10 -5
0 -17 -5 -25 -10z"/>
<path d="M2720 3520 c8 -5 20 -10 25 -10 6 0 3 5 -5 10 -8 5 -19 10 -25 10 -5
0 -3 -5 5 -10z"/>
<path d="M1728 3489 c-21 -11 -38 -22 -38 -24 0 -5 79 32 89 41 12 11 -18 1
-51 -17z"/>
<path d="M2780 3496 c0 -2 7 -7 16 -10 8 -3 12 -2 9 4 -6 10 -25 14 -25 6z"/>
<path d="M2840 3466 c0 -3 9 -10 20 -16 11 -6 20 -8 20 -6 0 3 -9 10 -20 16
-11 6 -20 8 -20 6z"/>
<path d="M1622 3425 c-28 -20 -52 -38 -52 -40 0 -3 25 11 55 31 48 32 62 44
52 44 -1 0 -26 -16 -55 -35z"/>
<path d="M2890 3437 c0 -3 12 -12 26 -22 15 -9 23 -12 20 -6 -7 11 -46 35 -46
28z"/>
<path d="M1534 3358 l-19 -23 23 19 c21 18 27 26 19 26 -2 0 -12 -10 -23 -22z"/>
<path d="M1373 3203 c-57 -71 -69 -88 -57 -81 12 8 107 128 101 128 -3 0 -23
-21 -44 -47z"/>
<path d="M1276 3072 c-32 -51 -92 -171 -100 -202 -4 -14 13 16 37 65 24 50 56
109 70 133 15 23 25 42 22 42 -2 0 -16 -17 -29 -38z"/>
<path d="M1145 3091 c-8 -15 3 -31 21 -31 9 0 14 7 12 17 -4 20 -24 28 -33 14z"/>
<path d="M3336 3085 c-3 -9 1 -18 10 -22 19 -7 39 11 30 26 -10 16 -33 13 -40
-4z"/>
<path d="M3306 2978 c15 -29 42 -93 60 -143 38 -103 46 -103 10 1 -23 70 -82
194 -91 194 -3 0 7 -24 21 -52z"/>
<path d="M1156 2825 c-3 -9 -6 -22 -5 -28 0 -7 5 -1 10 12 5 13 8 26 5 28 -2
2 -6 -3 -10 -12z"/>
<path d="M1022 2773 c4 -21 33 -25 33 -3 0 8 -8 16 -18 18 -14 3 -18 -1 -15
-15z"/>
<path d="M3462 2773 c2 -10 10 -18 18 -18 8 0 16 8 18 18 2 12 -3 17 -18 17
-15 0 -20 -5 -18 -17z"/>
<path d="M1131 2734 c0 -11 3 -14 6 -6 3 7 2 16 -1 19 -3 4 -6 -2 -5 -13z"/>
<path d="M3401 2724 c0 -11 3 -14 6 -6 3 7 2 16 -1 19 -3 4 -6 -2 -5 -13z"/>
<path d="M1122 2690 c0 -14 2 -19 5 -12 2 6 2 18 0 25 -3 6 -5 1 -5 -13z"/>
<path d="M3412 2680 c0 -14 2 -19 5 -12 2 6 2 18 0 25 -3 6 -5 1 -5 -13z"/>
<path d="M1112 2620 c0 -19 2 -27 5 -17 2 9 2 25 0 35 -3 9 -5 1 -5 -18z"/>
<path d="M3422 2620 c0 -19 2 -27 5 -17 2 9 2 25 0 35 -3 9 -5 1 -5 -18z"/>
<path d="M2229 2600 c-104 -18 -159 -132 -110 -228 26 -51 84 -82 151 -82 49
0 56 3 95 43 57 56 68 114 36 181 -34 68 -95 99 -172 86z m91 -45 c81 -42 80
-178 -1 -221 -54 -28 -129 -10 -163 38 -18 26 -21 109 -5 139 27 52 112 73
169 44z"/>
<path d="M2428 2524 c60 -118 -36 -264 -174 -264 -83 0 -148 52 -175 140 -5
17 -8 19 -8 7 -1 -10 6 -32 15 -48 8 -17 13 -33 10 -36 -3 -3 -47 0 -98 5 -51
6 -146 14 -210 18 l-117 7 8 -29 c5 -16 18 -56 30 -89 12 -33 24 -67 27 -76 3
-9 -1 -19 -10 -22 -11 -5 -22 5 -35 31 -11 20 -20 33 -21 29 0 -4 7 -22 16
-39 9 -17 12 -34 7 -38 -4 -4 -68 -41 -140 -83 l-133 -76 -21 41 c-23 45 -69
163 -69 177 0 7 98 36 310 92 25 6 40 14 34 16 -6 2 -85 -17 -175 -42 -90 -25
-166 -45 -170 -45 -8 0 -29 103 -29 142 l0 30 70 -4 c39 -2 70 -1 70 2 0 6
-259 27 -415 35 l-80 4 90 -10 91 -11 12 -87 c30 -223 126 -439 264 -596 l40
-45 -83 -98 c-45 -53 -99 -115 -118 -137 -46 -50 -22 -32 106 77 56 49 105 88
109 88 4 0 28 -17 53 -38 67 -54 93 -71 42 -26 -25 22 -54 46 -65 55 -11 9
-16 21 -12 28 5 8 21 0 52 -29 144 -133 410 -249 611 -267 86 -7 74 35 104
-360 13 -161 26 -293 29 -293 4 0 10 44 13 98 10 151 36 462 42 510 6 40 8 42
42 42 96 0 304 59 426 122 63 31 168 103 218 147 l45 39 127 -109 c70 -61 127
-105 127 -100 0 5 -4 12 -9 15 -4 3 -52 57 -106 121 l-97 115 45 52 c127 152
217 344 246 528 7 41 17 94 23 118 l11 42 66 0 c36 0 174 9 306 20 132 11 246
20 254 20 8 0 12 2 9 5 -7 8 -478 47 -508 42 -20 -3 -18 -4 10 -6 19 -2 96 -8
170 -15 123 -12 73 -13 -567 -15 l-702 -1 -11 40 c-6 21 -15 42 -21 46 -8 4
-8 1 -1 -12z m-1152 -149 c6 -2 14 -32 18 -67 3 -34 9 -75 12 -89 5 -25 3 -27
-57 -42 -35 -9 -65 -15 -66 -13 -7 6 -33 159 -33 190 l0 33 58 -4 c31 -3 62
-6 68 -8z m2110 -47 c-11 -110 -27 -169 -45 -164 -9 3 -38 10 -64 17 l-48 12
5 56 5 56 -10 -50 c-6 -27 -12 -51 -14 -53 -2 -2 -63 13 -135 33 -72 20 -136
35 -142 33 -6 -2 53 -21 131 -43 161 -43 150 -27 100 -153 -49 -124 -34 -121
-189 -31 -115 67 -135 82 -133 101 2 20 2 21 -8 5 -8 -13 -14 -15 -29 -7 -18
9 -17 12 6 60 13 27 24 57 24 65 0 9 10 15 23 16 17 1 18 2 4 6 -10 3 -16 10
-13 16 3 7 9 20 12 30 4 11 17 17 38 18 17 0 100 6 184 12 l152 13 2 -36 1
-35 4 37 c4 40 4 39 117 46 l29 2 -7 -62z m-1424 -7 l38 -6 -81 -95 c-115
-135 -106 -128 -124 -105 -26 36 -95 184 -95 206 0 21 2 21 113 14 61 -4 129
-10 149 -14z m863 -30 c-14 -53 -83 -191 -95 -191 -5 0 -32 28 -61 63 -29 34
-73 83 -98 109 -32 34 -41 49 -30 52 8 3 59 7 114 9 55 1 119 4 142 5 l41 2
-13 -49z m-456 -318 c-15 -181 -39 -481 -54 -668 -14 -187 -30 -369 -34 -405
-5 -39 -9 218 -10 638 l-1 704 21 5 c16 5 104 48 104 52 0 1 -12 -146 -26
-326z m-1033 155 c34 -106 114 -248 177 -315 l31 -33 -40 -47 c-22 -26 -45
-48 -51 -50 -9 -3 -95 102 -138 169 l-17 27 57 32 c31 17 54 33 51 36 -2 2
-29 -10 -59 -27 l-56 -31 -19 38 c-29 55 -69 157 -77 192 -6 29 -4 31 42 45
76 23 79 22 99 -36z m819 -101 c7 -78 10 -144 8 -146 -13 -16 -244 86 -243
107 1 4 36 35 78 69 42 35 91 76 107 92 17 16 32 27 34 25 3 -3 10 -68 16
-147z m1158 132 c20 -5 37 -14 37 -19 0 -28 -96 -250 -108 -250 -4 0 -101 57
-110 65 -2 2 8 25 21 52 13 26 35 76 47 111 26 70 16 66 113 41z m-785 -93
l94 -79 -53 -34 c-51 -31 -184 -82 -192 -72 -3 3 17 276 22 288 1 5 19 -9 129
-103z m-754 43 c17 -29 16 -59 -3 -59 -5 0 -18 14 -29 32 -15 24 -18 36 -10
45 15 19 22 16 42 -18z m1034 18 c8 -9 5 -21 -10 -45 -22 -35 -28 -38 -45 -21
-9 9 -6 20 10 45 24 37 30 40 45 21z m-1070 -54 c19 -29 20 -38 10 -52 -38
-47 -192 -226 -198 -229 -7 -3 -71 77 -106 132 -10 16 -14 31 -9 33 6 2 66 37
135 78 69 41 130 74 135 74 6 0 20 -16 33 -36z m1237 -40 c74 -43 134 -81 135
-85 0 -11 -109 -153 -119 -153 -8 0 -211 231 -211 241 0 10 46 74 53 74 4 0
68 -35 142 -77z m-1040 -88 c26 -22 28 -27 15 -37 -8 -7 -16 -19 -18 -27 -2
-8 -37 -73 -80 -146 l-76 -133 -26 16 c-14 9 -51 36 -83 60 -57 43 -58 45 -40
62 10 9 67 58 126 109 95 82 110 91 125 79 15 -11 16 -11 5 3 -10 12 -10 18
-1 27 16 16 19 16 53 -13z m900 -140 c103 -88 193 -163 199 -167 7 -5 0 -17
-19 -33 -44 -38 -167 -125 -176 -125 -7 0 -73 110 -67 114 107 72 199 148 141
118 -12 -7 -25 -17 -28 -22 -3 -6 -33 -28 -65 -50 l-58 -40 -79 138 c-43 75
-77 143 -77 149 1 7 -2 11 -6 8 -5 -3 -12 5 -16 17 -4 12 -2 24 3 25 6 2 19
10 29 18 10 8 22 13 25 12 4 -1 91 -74 194 -162z m387 47 c-31 -49 -69 -101
-101 -138 l-32 -36 -26 23 c-14 13 -34 36 -45 51 l-19 28 34 42 c19 24 46 62
61 85 l28 41 58 -35 59 -35 -17 -26z m-1174 38 c66 -26 70 -31 49 -52 -8 -7
-12 -18 -10 -25 3 -9 -44 -200 -73 -295 -5 -16 -10 -16 -68 6 -54 21 -144 62
-155 72 -3 3 133 247 152 271 7 9 15 10 31 2 20 -10 20 -9 2 5 -17 14 -16 52
2 44 4 -2 35 -14 70 -28z m522 26 c0 -2 2 -11 5 -18 4 -10 -8 -21 -35 -33 -22
-10 -38 -20 -36 -22 2 -3 22 5 44 16 l40 21 82 -141 c45 -77 80 -142 78 -144
-12 -11 -113 -56 -156 -70 -29 -10 -51 -20 -48 -22 7 -8 75 17 147 53 l66 33
31 -56 c18 -30 32 -58 32 -62 0 -14 -248 -119 -255 -109 -10 16 -119 454 -113
456 4 2 1 10 -7 19 -8 8 -15 17 -15 21 0 4 28 19 63 33 65 28 77 32 77 25z
m-406 -64 c6 -10 37 -374 33 -379 -4 -3 -167 24 -172 29 -2 3 78 310 90 346 5
13 41 17 49 4z m265 -29 c6 -21 28 -102 49 -180 l39 -142 -51 -10 c-102 -20
-126 -23 -126 -15 0 5 7 88 15 184 8 96 15 181 15 188 0 6 11 12 25 12 20 0
26 -7 34 -37z m-714 -193 c28 -18 51 -34 53 -35 2 -2 -54 -104 -63 -113 -10
-11 -208 134 -203 148 2 4 25 26 53 49 l49 41 31 -29 c16 -15 53 -43 80 -61z
m185 -98 c41 -16 83 -32 92 -35 16 -6 16 -10 2 -59 -8 -29 -17 -58 -19 -65 -5
-15 -111 19 -202 66 l-62 31 35 60 c34 56 37 59 57 45 12 -7 56 -27 97 -43z
m220 -62 c36 -5 68 -10 72 -10 7 0 23 -129 16 -135 -6 -6 -196 23 -212 32 -10
6 -9 21 6 71 15 50 22 62 36 58 9 -3 46 -10 82 -16z m410 -22 c24 -86 22 -91
-41 -104 -31 -6 -80 -13 -109 -16 l-53 -5 6 65 c4 36 8 66 10 68 1 1 23 6 47
9 25 3 61 10 80 15 19 4 38 8 42 9 4 1 12 -18 18 -41z"/>
<path d="M2890 2280 c0 -6 7 -10 15 -10 8 0 15 2 15 4 0 2 -7 6 -15 10 -8 3
-15 1 -15 -4z"/>
<path d="M2866 2215 c-9 -26 -7 -32 5 -12 6 10 9 21 6 23 -2 3 -7 -2 -11 -11z"/>
<path d="M2639 1919 l-24 -20 28 17 c15 9 27 18 27 20 0 8 -8 4 -31 -17z"/>
<path d="M2010 1850 c8 -5 20 -10 25 -10 6 0 3 5 -5 10 -8 5 -19 10 -25 10 -5
0 -3 -5 5 -10z"/>
<path d="M2128 1813 c7 -3 16 -2 19 1 4 3 -2 6 -13 5 -11 0 -14 -3 -6 -6z"/>
<path d="M2398 1813 c7 -3 16 -2 19 1 4 3 -2 6 -13 5 -11 0 -14 -3 -6 -6z"/>
<path d="M3442 2370 c0 -14 2 -19 5 -12 2 6 2 18 0 25 -3 6 -5 1 -5 -13z"/>
<path d="M1101 2338 c-1 -27 3 -48 7 -48 4 0 6 17 4 38 -5 58 -10 62 -11 10z"/>
<path d="M1473 2363 c15 -2 39 -2 55 0 15 2 2 4 -28 4 -30 0 -43 -2 -27 -4z"/>
<path d="M1583 2353 c15 -2 39 -2 55 0 15 2 2 4 -28 4 -30 0 -43 -2 -27 -4z"/>
<path d="M1632 2320 c0 -14 2 -19 5 -12 2 6 2 18 0 25 -3 6 -5 1 -5 -13z"/>
<path d="M3422 2270 c0 -19 2 -27 5 -17 2 9 2 25 0 35 -3 9 -5 1 -5 -18z"/>
<path d="M1111 2264 c0 -11 3 -14 6 -6 3 7 2 16 -1 19 -3 4 -6 -2 -5 -13z"/>
<path d="M1651 2250 c0 -8 4 -22 9 -30 12 -18 12 -2 0 25 -6 13 -9 15 -9 5z"/>
<path d="M3412 2210 c0 -14 2 -19 5 -12 2 6 2 18 0 25 -3 6 -5 1 -5 -13z"/>
<path d="M1121 2204 c0 -11 3 -14 6 -6 3 7 2 16 -1 19 -3 4 -6 -2 -5 -13z"/>
<path d="M1132 2165 c0 -11 3 -29 8 -40 11 -25 11 1 0 35 -6 20 -8 21 -8 5z"/>
<path d="M3401 2164 c0 -11 3 -14 6 -6 3 7 2 16 -1 19 -3 4 -6 -2 -5 -13z"/>
<path d="M1027 2134 c-14 -14 -7 -35 11 -32 9 2 17 10 17 17 0 16 -18 25 -28
15z"/>
<path d="M3377 2088 c-9 -29 -15 -54 -13 -56 2 -2 12 20 21 48 9 28 15 53 13
55 -2 3 -12 -19 -21 -47z"/>
<path d="M3465 2131 c-8 -15 3 -31 21 -31 9 0 14 7 12 17 -4 20 -24 28 -33 14z"/>
<path d="M3346 2004 c-4 -9 -4 -19 -1 -22 2 -3 7 3 11 12 4 9 4 19 1 22 -2 3
-7 -3 -11 -12z"/>
<path d="M1180 2007 c-1 -33 135 -254 205 -332 20 -22 4 3 -35 55 -39 52 -93
138 -120 190 -27 52 -49 92 -50 87z"/>
<path d="M3317 1935 c-9 -19 -15 -35 -12 -35 7 0 37 61 33 66 -3 2 -12 -12
-21 -31z"/>
<path d="M3270 1850 c-6 -11 -8 -20 -6 -20 3 0 10 9 16 20 6 11 8 20 6 20 -3
0 -10 -9 -16 -20z"/>
<path d="M1144 1819 c-3 -6 -2 -15 4 -21 13 -13 32 -2 32 18 0 16 -26 19 -36
3z"/>
<path d="M3337 1824 c-9 -9 4 -34 18 -34 14 0 27 25 18 34 -4 3 -12 6 -18 6
-6 0 -14 -3 -18 -6z"/>
<path d="M3221 1773 c-25 -36 -26 -41 -6 -18 26 30 49 65 42 65 -2 0 -18 -21
-36 -47z"/>
<path d="M3151 1685 c-29 -33 -36 -45 -28 -45 2 0 18 18 36 40 40 49 34 53 -8
5z"/>
<path d="M3017 1553 c-24 -21 -57 -48 -73 -61 -16 -13 -9 -9 16 7 50 34 118
91 108 91 -4 0 -27 -17 -51 -37z"/>
<path d="M1604 1481 c7 -11 46 -35 46 -28 0 3 -12 12 -26 22 -15 9 -23 12 -20
6z"/>
<path d="M2805 1414 c-116 -62 -121 -72 -7 -15 67 34 128 72 112 70 -3 -1 -50
-25 -105 -55z"/>
<path d="M1660 1446 c0 -3 14 -12 30 -21 17 -9 30 -13 30 -11 0 3 -13 12 -30
21 -16 9 -30 13 -30 11z"/>
<path d="M1730 1406 c0 -2 7 -7 16 -10 8 -3 12 -2 9 4 -6 10 -25 14 -25 6z"/>
<path d="M1790 1375 c14 -8 30 -14 35 -14 6 0 -1 6 -15 14 -14 8 -29 14 -35
14 -5 0 1 -6 15 -14z"/>
<path d="M1610 1350 c0 -15 5 -20 18 -18 9 2 17 10 17 18 0 8 -8 16 -17 18
-13 2 -18 -3 -18 -18z"/>
<path d="M2875 1360 c-8 -14 3 -30 21 -30 8 0 14 9 14 20 0 21 -24 28 -35 10z"/>
<path d="M1850 1350 c8 -5 20 -10 25 -10 6 0 3 5 -5 10 -8 5 -19 10 -25 10 -5
0 -3 -5 5 -10z"/>
<path d="M2620 1335 c-19 -7 -28 -14 -20 -14 8 0 29 6 45 14 39 17 21 18 -25
0z"/>
<path d="M1905 1330 c11 -5 27 -9 35 -9 9 0 8 4 -5 9 -11 5 -27 9 -35 9 -9 0
-8 -4 5 -9z"/>
<path d="M2558 1313 c7 -3 16 -2 19 1 4 3 -2 6 -13 5 -11 0 -14 -3 -6 -6z"/>
<path d="M1998 1303 c6 -2 18 -2 25 0 6 3 1 5 -13 5 -14 0 -19 -2 -12 -5z"/>
<path d="M2518 1303 c7 -3 16 -2 19 1 4 3 -2 6 -13 5 -11 0 -14 -3 -6 -6z"/>
<path d="M2048 1293 c6 -2 18 -2 25 0 6 3 1 5 -13 5 -14 0 -19 -2 -12 -5z"/>
<path d="M2468 1293 c6 -2 18 -2 25 0 6 3 1 5 -13 5 -14 0 -19 -2 -12 -5z"/>
<path d="M2113 1283 c9 -2 25 -2 35 0 9 3 1 5 -18 5 -19 0 -27 -2 -17 -5z"/>
<path d="M2393 1283 c9 -2 23 -2 30 0 6 3 -1 5 -18 5 -16 0 -22 -2 -12 -5z"/>
<path d="M1914 1229 c-3 -6 -2 -15 4 -21 13 -13 32 -2 32 18 0 16 -26 19 -36
3z"/>
<path d="M2572 1223 c2 -10 10 -18 18 -18 22 0 18 29 -3 33 -14 3 -18 -1 -15
-15z"/>
</g>
</svg>
