<?xml version="1.0" encoding="UTF-8"?>
<svg baseProfile="tiny" viewBox="-0.0002441 0 426.2109375 426.2109375" xmlns="http://www.w3.org/2000/svg" height="96px" width="96px">
 <g transform="matrix(.92388 -.38268 .38268 .92388 49.426 280.9)">
  <path d="m-4.6e-4 3.8e-4 177.17-5.3e-4" fill="#FFF" stroke="#fff" stroke-linecap="round" stroke-width=".66823"/>
 </g>
 <g transform="matrix(.88985 -.45626 .45626 .88985 49.426 280.9)">
  <path d="m-5.5e-4 4.1e-4 141.97-1.53e-5" fill="#FFF" stroke="#fff" stroke-linecap="round" stroke-width=".66823"/>
 </g>
 <g transform="matrix(.93388 -.35758 .35758 .93388 49.426 280.9)">
  <path d="m-5.3e-4 4.9e-4 142-4.3e-4" fill="#FFF" stroke="#fff" stroke-linecap="round" stroke-width=".66823"/>
 </g>
 <g transform="matrix(.94321 -.33221 .33221 .94321 49.426 280.9)">
  <path d="m-5.2e-4 4.9e-4 141.99 6.1e-5" fill="#FFF" stroke="#fff" stroke-linecap="round" stroke-width=".66823"/>
 </g>
 <g transform="matrix(.95184 -.30659 .30659 .95184 49.426 280.9)">
  <path d="m-5.2e-4 4.9e-4 141.98-8.2e-4" fill="#FFF" stroke="#fff" stroke-linecap="round" stroke-width=".66823"/>
 </g>
 <g transform="matrix(.92388 .38268 -.38268 .92388 49.426 145.31)">
  <path d="m-3.4e-4 9.16e-5 177.17 6.1e-5" fill="#FFF" stroke="#fff" stroke-linecap="round" stroke-width=".66823"/>
 </g>
 <g transform="matrix(.95184 .30659 -.30659 .95184 49.426 145.31)">
  <path d="m-3.4e-4 6.1e-5 141.98-9.16e-5" fill="#FFF" stroke="#fff" stroke-linecap="round" stroke-width=".66823"/>
 </g>
 <g transform="matrix(.9132 .4075 -.4075 .9132 49.426 145.31)">
  <path d="m-3.4e-4 9.16e-5 142-9.16e-5" fill="#FFF" stroke="#fff" stroke-linecap="round" stroke-width=".66823"/>
 </g>
 <g transform="matrix(.90186 .43204 -.43204 .90186 49.426 145.31)">
  <path d="m-3.1e-4 6.1e-5h141.99" fill="#FFF" stroke="#fff" stroke-linecap="round" stroke-width=".66823"/>
 </g>
 <g transform="matrix(.88985 .45626 -.45626 .88985 49.426 145.31)">
  <path d="m-3.2e-4 6.1e-5h141.97" fill="#FFF" stroke="#fff" stroke-linecap="round" stroke-width=".66823"/>
 </g>
 <g transform="matrix(.38268 -.92388 .92388 .38268 145.31 376.78)">
  <path d="m-6.1e-4 -2.4e-4 177.17 5.3e-4" fill="#FFF" stroke="#fff" stroke-linecap="round" stroke-width=".66823"/>
 </g>
 <g transform="matrix(.30659 -.95184 .95184 .30659 145.31 376.78)">
  <path d="m-5.8e-4 -3.1e-4 141.98 5.2e-4" fill="#FFF" stroke="#fff" stroke-linecap="round" stroke-width=".66823"/>
 </g>
 <g transform="matrix(.40751 -.9132 .9132 .40751 145.31 376.78)">
  <path d="m-6.4e-4 -2.3e-4h142" fill="#FFF" stroke="#fff" stroke-linecap="round" stroke-width=".66823"/>
 </g>
 <g transform="matrix(.43204 -.90185 .90185 .43204 145.31 376.78)">
  <path d="m-6.1e-4 -2.1e-4 141.99 5.4e-4" fill="#FFF" stroke="#fff" stroke-linecap="round" stroke-width=".66823"/>
 </g>
 <g transform="matrix(.45626 -.88985 .88985 .45626 145.31 376.78)">
  <path d="m-6.7e-4 -1.8e-4 141.97 1.53e-5" fill="#FFF" stroke="#fff" stroke-linecap="round" stroke-width=".66823"/>
 </g>
 <g transform="matrix(-.92388 .38268 -.38268 -.92388 376.78 145.31)">
  <path d="m-6.1e-5 -3.05e-5 177.17-9.16e-5" fill="#FFF" stroke="#fff" stroke-linecap="round" stroke-width=".66823"/>
 </g>
 <g transform="matrix(-.88886 .45818 -.45818 -.88886 376.78 145.31)">
  <path d="m0-4.58e-5 141.97-1.8e-4" fill="#FFF" stroke="#fff" stroke-linecap="round" stroke-width=".66823"/>
 </g>
 <g transform="matrix(-.91291 .40817 -.40817 -.91291 376.78 145.31)">
  <path d="m0-7.63e-5 142 1.1e-4" fill="#FFF" stroke="#fff" stroke-linecap="round" stroke-width=".66823"/>
 </g>
 <g transform="matrix(-.90123 .43334 -.43334 -.90123 376.78 145.31)">
  <path d="m6.1e-5 0 141.99 1.1e-4" fill="#FFF" stroke="#fff" stroke-linecap="round" stroke-width=".66823"/>
 </g>
 <g transform="matrix(-.9525 .30453 -.30453 -.9525 376.78 145.31)">
  <path d="m0 0 141.97 6.1e-5" fill="#FFF" stroke="#fff" stroke-linecap="round" stroke-width=".66823"/>
 </g>
 <g transform="matrix(-.38268 .92388 -.92388 -.38268 280.9 49.427)">
  <path d="m1.2e-4 -1.7e-4 177.17 7.5e-4" fill="#FFF" stroke="#fff" stroke-linecap="round" stroke-width=".66823"/>
 </g>
 <g transform="matrix(-.30453 .9525 -.9525 -.30453 280.9 49.427)">
  <path d="m1.8e-4 -1.2e-4 141.98 4e-4" fill="#FFF" stroke="#fff" stroke-linecap="round" stroke-width=".66823"/>
 </g>
 <g transform="matrix(-.3569 .93414 -.93414 -.3569 280.9 49.427)">
  <path d="m1.8e-4 -7.63e-5 142-2.1e-4" fill="#FFF" stroke="#fff" stroke-linecap="round" stroke-width=".66823"/>
 </g>
 <g transform="matrix(-.33084 .94369 -.94369 -.33084 280.9 49.427)">
  <path d="m1.2e-4 -7.63e-5 141.99 2.4e-4" fill="#FFF" stroke="#fff" stroke-linecap="round" stroke-width=".66823"/>
 </g>
 <g transform="matrix(-.45818 .88886 -.88886 -.45818 280.9 49.427)">
  <path d="m1.8e-4 -9.16e-5 141.97 1.4e-4" fill="#FFF" stroke="#fff" stroke-linecap="round" stroke-width=".66823"/>
 </g>
 <g transform="matrix(.38268 .92388 -.92388 .38268 145.31 49.427)">
  <path d="m-3.05e-5 7.3e-4 177.17-7.3e-4" fill="#FFF" stroke="#fff" stroke-linecap="round" stroke-width=".66823"/>
 </g>
 <g transform="matrix(.45818 .88886 -.88886 .45818 145.31 49.427)">
  <path d="m-9.16e-5 7.3e-4 141.97-1.5e-4" fill="#FFF" stroke="#fff" stroke-linecap="round" stroke-width=".66823"/>
 </g>
 <g transform="matrix(.40817 .91291 -.91291 .40817 145.31 49.427)">
  <path d="m-3.05e-5 7.3e-4 142 1.2e-4" fill="#FFF" stroke="#fff" stroke-linecap="round" stroke-width=".66823"/>
 </g>
 <g transform="matrix(.43334 .90123 -.90123 .43334 145.31 49.427)">
  <path d="m-3.05e-5 7.6e-4 141.99-6.1e-5" fill="#FFF" stroke="#fff" stroke-linecap="round" stroke-width=".66823"/>
 </g>
 <g transform="matrix(.30453 .9525 -.9525 .30453 145.31 49.427)">
  <path d="m1.2e-4 7.3e-4 141.98-3.7e-4" fill="#FFF" stroke="#fff" stroke-linecap="round" stroke-width=".66823"/>
 </g>
 <g transform="matrix(-.38268 -.92388 .92388 -.38268 280.9 376.78)">
  <path d="m-7e-4 -3.1e-4 177.17-5.8e-4" fill="#FFF" stroke="#fff" stroke-linecap="round" stroke-width=".66823"/>
 </g>
 <g transform="matrix(-.45818 -.88886 .88886 -.45818 280.9 376.78)">
  <path d="m-6.9e-4 -4e-4 141.97-1.5e-4" fill="#FFF" stroke="#fff" stroke-linecap="round" stroke-width=".66823"/>
 </g>
 <g transform="matrix(-.40817 -.91291 .91291 -.40817 280.9 376.78)">
  <path d="m-6.7e-4 -3.7e-4 142 5.2e-4" fill="#FFF" stroke="#fff" stroke-linecap="round" stroke-width=".66823"/>
 </g>
 <g transform="matrix(-.43334 -.90123 .90123 -.43334 280.9 376.78)">
  <path d="m-6.6e-4 -4e-4 141.99 9.16e-5" fill="#FFF" stroke="#fff" stroke-linecap="round" stroke-width=".66823"/>
 </g>
 <g transform="matrix(-.30453 -.9525 .9525 -.30453 280.9 376.78)">
  <path d="m-7.1e-4 -2.7e-4 141.98-9.16e-5" fill="#FFF" stroke="#fff" stroke-linecap="round" stroke-width=".66823"/>
 </g>
 <g transform="matrix(-.92388 -.38268 .38268 -.92388 376.78 280.9)">
  <path d="m-1.8e-4 -9.2e-4 177.17 5.5e-4" fill="#FFF" stroke="#fff" stroke-linecap="round" stroke-width=".66823"/>
 </g>
 <g transform="matrix(-.9525 -.30453 .30453 -.9525 376.78 280.9)">
  <path d="m-1.2e-4 -9.2e-4 141.98 3.7e-4" fill="#FFF" stroke="#fff" stroke-linecap="round" stroke-width=".66823"/>
 </g>
 <g transform="matrix(-.93414 -.3569 .3569 -.93414 376.78 280.9)">
  <path d="m-9.16e-5 -9.2e-4 142 7e-4" fill="#FFF" stroke="#fff" stroke-linecap="round" stroke-width=".66823"/>
 </g>
 <g transform="matrix(-.94369 -.33084 .33084 -.94369 376.78 280.9)">
  <path d="m-6.1e-5 -9.8e-4 141.99 2.4e-4" fill="#FFF" stroke="#fff" stroke-linecap="round" stroke-width=".66823"/>
 </g>
 <g transform="matrix(-.88886 -.45818 .45818 -.88886 376.78 280.9)">
  <path d="m-2.1e-4 -9.5e-4 141.97 1.8e-4" fill="#FFF" stroke="#fff" stroke-linecap="round" stroke-width=".66823"/>
 </g>
 <g transform="matrix(.70711 -.70711 .70711 .70711 65.667 65.667)">
  <path d="m10.694 208.54-8.9973-186.47c8.3006-4.9045 3.9616-14.902-1.6977-22.07l3.05e-5 208.54 10.695-2e-5z" fill="#fff" stroke="#000" stroke-linejoin="round" stroke-width=".37728"/>
 </g>
 <g transform="matrix(.70711 -.70711 .70711 .70711 58.105 73.229)">
  <path d="m-9.16e-5 208.54 8.9963-186.47c-8.2999-4.9045-3.9613-14.903 1.6977-22.071v208.54l-10.694 3.4e-4z" stroke="#fff" stroke-linejoin="round" stroke-width=".37728"/>
 </g>
 <g transform="matrix(-.70711 .70711 -.70711 -.70711 360.54 360.54)">
  <path d="m10.696 208.54-8.9976-186.47c8.3009-4.9049 3.9616-14.902-1.6974-22.071v208.54l10.695 3e-5z" stroke="#fff" stroke-linejoin="round" stroke-width=".37728"/>
 </g>
 <g transform="matrix(-.70711 .70711 -.70711 -.70711 368.1 352.98)">
  <path d="m1.8e-4 208.54 8.997-186.47c-8.3002-4.9056-3.9609-14.903 1.698-22.072v208.54l-10.695-2e-5z" fill="#fff" stroke="#fff" stroke-linejoin="round" stroke-width=".37728"/>
 </g>
 <g transform="matrix(-.70711 -.70711 .70711 -.70711 65.667 360.54)">
  <path d="m10.695 208.54-8.9977-186.47c8.3009-4.9049 3.9616-14.902-1.6973-22.071l-1.53e-5 208.54h10.695z" fill="#fff" stroke="#fff" stroke-linejoin="round" stroke-width=".37728"/>
 </g>
 <g transform="matrix(-.70711 -.70711 .70711 -.70711 73.23 368.1)">
  <path d="m-9.16e-5 208.54 8.997-186.47c-8.3002-4.9042-3.9616-14.902 1.698-22.07l-3.4e-4 208.54-10.695 3.4e-4z" stroke="#fff" stroke-linejoin="round" stroke-width=".37728"/>
 </g>
 <g transform="matrix(.70711 .70711 -.70711 .70711 360.54 65.666)">
  <path d="m10.695 208.54-8.997-186.47c8.3002-4.9042 3.9616-14.902-1.698-22.07v208.54h10.695z" stroke="#fff" stroke-linejoin="round" stroke-width=".37728"/>
 </g>
 <g transform="matrix(.70711 .70711 -.70711 .70711 352.98 58.105)">
  <path d="m9.16e-5 208.54 8.9966-186.47c-8.3002-4.9042-3.9616-14.902 1.6977-22.07l-1.53e-5 208.54-10.694-7e-4z" fill="#fff" stroke="#fff" stroke-linejoin="round" stroke-width=".472"/>
 </g>
 <g transform="matrix(0 1 -1 0 425.7 198.74)">
  <path d="m12.412 28.73c0.8042-11.492-6.8164-11.492-6.6655-11.492 0 0 7.4697 0 8.6191-17.237v212.6l-14.365-14.364 12.411-169.5z" fill="#fff" stroke="#fff" stroke-linejoin="round" stroke-width=".81081"/>
 </g>
 <g transform="matrix(0 1 -1 0 425.7 213.11)">
  <path d="m1.9544 28.73c-0.80469-11.492 6.8154-11.492 6.665-11.492 0 0-7.4697 0-8.6186-17.237v212.6l14.365-14.364-12.411-169.5z" stroke="#fff" stroke-linejoin="round" stroke-width=".81081"/>
 </g>
 <g transform="matrix(0 -1 1 0 .50676 227.47)">
  <path d="m12.411 28.729c0.80469-11.492-6.8164-11.492-6.665-11.492 0 0 7.4697 0 8.6186-17.237v212.6l-14.365-14.365 12.411-169.5z" stroke="#fff" stroke-linejoin="round" stroke-width=".81081"/>
 </g>
 <g transform="matrix(0 -1 1 0 .50676 213.1)">
  <path d="m1.9528 28.729c-0.8042-11.492 6.8164-11.492 6.6655-11.492 0 0-7.4697 0-8.6186-17.237v212.6l14.364-14.365-12.411-169.5z" fill="#fff" stroke="#fff" stroke-linejoin="round" stroke-width=".81081"/>
 </g>
 <g transform="translate(198.74 .50676)">
  <path d="m12.411 28.73c0.80371-11.492-6.8164-11.492-6.665-11.492 0 0 7.4688 0 8.6182-17.237v212.6l-14.364-14.365 12.411-169.5z" fill="#fff" stroke="#fff" stroke-linejoin="round" stroke-width=".81081"/>
 </g>
 <g transform="translate(213.11 .50676)">
  <path d="m1.953 28.73c-0.80469-11.492 6.8164-11.492 6.665-11.492 0 0-7.4697 0-8.6182-17.237v212.6l14.364-14.365-12.411-169.5z" stroke="#fff" stroke-linejoin="round" stroke-width=".811"/>
 </g>
 <g transform="matrix(-1 0 0 -1 227.47 425.7)">
  <path d="m12.412 28.729c0.80371-11.492-6.8164-11.492-6.666-11.492 9.8e-4 0 7.4697 0 8.6191-17.237v212.6l-14.364-14.365 12.411-169.5z" stroke="#fff" stroke-linejoin="round" stroke-width=".81081"/>
 </g>
 <g transform="matrix(-1 0 0 -1 213.11 425.7)">
  <path d="m1.9542 28.729c-0.80469-11.492 6.8164-11.492 6.665-11.492 0 0-7.4697 0-8.6191-17.237v212.6l14.365-14.365-12.411-169.5z" fill="#fff" stroke="#fff" stroke-linejoin="round" stroke-width=".81081"/>
 </g>
 <g transform="matrix(.70711 .70711 -.70711 .70711 213.11 213.11)">
  <path d="m4.3e-4 5.8e-4 20.317 4e-4" fill="#FFF"  stroke-linecap="round" stroke-width=".81081"/>
 </g>
</svg>
